<?xml version="1.0" encoding="UTF-8" standalone="no"?>
<!--?xml version="1.0" standalone="no"?-->

<svg
   xmlns:dc="http://purl.org/dc/elements/1.1/"
   xmlns:cc="http://creativecommons.org/ns#"
   xmlns:rdf="http://www.w3.org/1999/02/22-rdf-syntax-ns#"
   xmlns:svg="http://www.w3.org/2000/svg"
   xmlns="http://www.w3.org/2000/svg"
   xmlns:sodipodi="http://sodipodi.sourceforge.net/DTD/sodipodi-0.dtd"
   xmlns:inkscape="http://www.inkscape.org/namespaces/inkscape"
   version="1.0"
   width="300.000000pt"
   height="270.000000pt"
   viewBox="0 0 300.000000 270.000000"
   preserveAspectRatio="xMidYMid meet"
   id="svg2"
   inkscape:version="0.91 r13725"
   sodipodi:docname="prew-arrow-b.svg">
  <metadata
     id="metadata14">
    <rdf:RDF>
      <cc:Work
         rdf:about="">
        <dc:format>image/svg+xml</dc:format>
        <dc:type
           rdf:resource="http://purl.org/dc/dcmitype/StillImage" />
        <dc:title></dc:title>
      </cc:Work>
    </rdf:RDF>
  </metadata>
  <defs
     id="defs12" />
  <sodipodi:namedview
     pagecolor="#ffffff"
     bordercolor="#666666"
     borderopacity="1"
     objecttolerance="10"
     gridtolerance="10"
     guidetolerance="10"
     inkscape:pageopacity="0"
     inkscape:pageshadow="2"
     inkscape:window-width="640"
     inkscape:window-height="480"
     id="namedview10"
     showgrid="false"
     inkscape:zoom="0.69925926"
     inkscape:cx="187.5"
     inkscape:cy="168.75"
     inkscape:window-x="890"
     inkscape:window-y="427"
     inkscape:window-maximized="0"
     inkscape:current-layer="svg2" />
  <g
     transform="matrix(0,0.09363115,-0.11019593,0,298.00316,-4.7545238)"
     id="g4"
     style="fill:#262525;stroke:none">
    <path
       d="M 1446,2618 C 1400,2544 1180,2193 971,1858 908,1757 844,1655 828,1630 700,1427 456,1038 440,1010 428,991 407,956 392,932 353,871 77,430 66,412 c -5,-9 -5,-13 2,-11 6,2 44,51 85,109 40,58 183,258 317,445 134,187 256,358 272,380 15,22 102,144 192,270 247,344 268,373 312,434 22,31 87,122 144,203 57,81 107,145 111,143 4,-3 51,-67 105,-142 54,-76 123,-173 153,-215 31,-43 79,-109 106,-148 28,-39 73,-101 100,-139 28,-38 79,-110 115,-160 36,-51 90,-127 121,-169 70,-97 245,-342 283,-396 181,-258 449,-626 452,-623 3,3 -5,21 -18,40 -13,20 -36,58 -52,84 -17,26 -48,77 -71,113 -42,65 -89,142 -161,258 -22,34 -53,84 -69,110 -17,26 -57,90 -89,142 -33,52 -75,120 -94,150 -20,30 -50,78 -67,105 -18,28 -110,176 -206,330 -95,154 -183,294 -194,312 -11,17 -41,64 -66,105 -57,91 -173,277 -270,430 -41,65 -77,118 -81,118 -3,0 -27,-33 -52,-72 z"
       id="node1"
       class="node"
       inkscape:connector-curvature="0" />
    <path
       d="M 1357,1288 C 1282,1138 1109,797 974,530 839,263 724,34 719,21 l -10,-24 28,19 c 16,10 136,87 268,172 132,85 294,190 359,233 66,44 126,79 133,79 11,0 142,-79 233,-140 15,-11 99,-65 315,-205 66,-43 144,-93 173,-113 29,-19 55,-32 58,-29 6,6 -767,1547 -776,1547 -3,0 -67,-123 -143,-272 z"
       id="node2"
       class="node"
       inkscape:connector-curvature="0" />
  </g>
  <g
     transform="matrix(0,0.09522337,-0.11019593,0,315.19914,263.5826)"
     id="g8"
     style="fill:#ffffff;stroke:none" />
</svg>
